solid Carriage
   facet normal -0.000000e+00 1.000000e+00 0.000000e+00
      outer loop
         vertex 7.695577e-01 1.243366e+02 3.438250e+02
         vertex 1.307695e+02 1.243366e+02 3.438250e+02
         vertex 7.695577e-01 1.243366e+02 1.028250e+02
      endloop
   endfacet
   facet normal 0.000000e+00 1.000000e+00 0.000000e+00
      outer loop
         vertex 7.695577e-01 1.243366e+02 1.028250e+02
         vertex 1.307695e+02 1.243366e+02 3.438250e+02
         vertex 1.307695e+02 1.243366e+02 1.028250e+02
      endloop
   endfacet
   facet normal -0.000000e+00 0.000000e+00 1.000000e+00
      outer loop
         vertex 7.695577e-01 1.243366e+02 3.438250e+02
         vertex 7.695577e-01 7.239802e+01 3.438250e+02
         vertex 1.307695e+02 1.243366e+02 3.438250e+02
      endloop
   endfacet
   facet normal 0.000000e+00 0.000000e+00 1.000000e+00
      outer loop
         vertex 1.307695e+02 1.243366e+02 3.438250e+02
         vertex 7.695577e-01 7.239802e+01 3.438250e+02
         vertex 1.307695e+02 7.239802e+01 3.438250e+02
      endloop
   endfacet
   facet normal -1.000000e+00 0.000000e+00 0.000000e+00
      outer loop
         vertex 7.695577e-01 7.239802e+01 3.438250e+02
         vertex 7.695577e-01 1.243366e+02 3.438250e+02
         vertex 7.695577e-01 7.239802e+01 1.028250e+02
      endloop
   endfacet
   facet normal -1.000000e+00 0.000000e+00 0.000000e+00
      outer loop
         vertex 7.695577e-01 7.239802e+01 1.028250e+02
         vertex 7.695577e-01 1.243366e+02 3.438250e+02
         vertex 7.695577e-01 1.243366e+02 1.028250e+02
      endloop
   endfacet
   facet normal -0.000000e+00 -0.000000e+00 -1.000000e+00
      outer loop
         vertex 1.307695e+02 1.243366e+02 1.028250e+02
         vertex 1.307695e+02 7.239802e+01 1.028250e+02
         vertex 7.695577e-01 1.243366e+02 1.028250e+02
      endloop
   endfacet
   facet normal 0.000000e+00 0.000000e+00 -1.000000e+00
      outer loop
         vertex 7.695577e-01 1.243366e+02 1.028250e+02
         vertex 1.307695e+02 7.239802e+01 1.028250e+02
         vertex 7.695577e-01 7.239802e+01 1.028250e+02
      endloop
   endfacet
   facet normal 1.000000e+00 0.000000e+00 0.000000e+00
      outer loop
         vertex 1.307695e+02 1.243366e+02 3.438250e+02
         vertex 1.307695e+02 7.239802e+01 3.438250e+02
         vertex 1.307695e+02 1.243366e+02 1.028250e+02
      endloop
   endfacet
   facet normal 1.000000e+00 0.000000e+00 0.000000e+00
      outer loop
         vertex 1.307695e+02 1.243366e+02 1.028250e+02
         vertex 1.307695e+02 7.239802e+01 3.438250e+02
         vertex 1.307695e+02 7.239802e+01 1.028250e+02
      endloop
   endfacet
   facet normal -0.000000e+00 -1.000000e+00 -0.000000e+00
      outer loop
         vertex 1.307695e+02 7.239802e+01 3.438250e+02
         vertex 7.695577e-01 7.239802e+01 3.438250e+02
         vertex 1.307695e+02 7.239802e+01 1.028250e+02
      endloop
   endfacet
   facet normal 0.000000e+00 -1.000000e+00 0.000000e+00
      outer loop
         vertex 1.307695e+02 7.239802e+01 1.028250e+02
         vertex 7.695577e-01 7.239802e+01 3.438250e+02
         vertex 7.695577e-01 7.239802e+01 1.028250e+02
      endloop
   endfacet
endsolid Carriage